<svg width="75" height="45" viewBox="0 0 75 45" fill="none" xmlns="http://www.w3.org/2000/svg">
<path d="M4.756 15C4.024 15 3.34 14.82 2.704 14.46C2.08 14.088 1.582 13.59 1.21 12.966C0.85 12.33 0.67 11.646 0.67 10.914C0.67 10.182 0.85 9.504 1.21 8.88C1.582 8.256 2.08 7.764 2.704 7.404C3.34 7.032 4.024 6.846 4.756 6.846H8.824V10.914C8.824 11.658 8.638 12.342 8.266 12.966C7.906 13.59 7.414 14.088 6.79 14.46C6.166 14.82 5.488 15 4.756 15ZM3.442 10.914C3.442 11.286 3.568 11.598 3.82 11.85C4.072 12.102 4.384 12.228 4.756 12.228C5.116 12.228 5.422 12.102 5.674 11.85C5.926 11.598 6.052 11.286 6.052 10.914V9.6H4.756C4.384 9.6 4.072 9.732 3.82 9.996C3.568 10.248 3.442 10.554 3.442 10.914ZM14.6173 15C13.8733 15 13.1893 14.82 12.5653 14.46C11.9413 14.088 11.4433 13.59 11.0713 12.966C10.7113 12.342 10.5313 11.658 10.5313 10.914V3.102L13.2853 2.418V10.914C13.2853 11.286 13.4113 11.598 13.6633 11.85C13.9273 12.102 14.2453 12.228 14.6173 12.228L15.1033 13.614L14.6173 15ZM14.1132 13.614L14.6172 12.228H26.9472C27.3072 12.228 27.6132 12.102 27.8652 11.85C28.1292 11.598 28.2612 11.286 28.2612 10.914C28.2612 10.554 28.1292 10.248 27.8652 9.996C27.6132 9.744 27.3072 9.618 26.9472 9.618H15.5172V6.846L23.0592 2.472L24.4812 4.578L20.5932 6.846H26.9472C27.6912 6.846 28.3752 7.032 28.9992 7.404C29.6232 7.764 30.1212 8.256 30.4932 8.88C30.8652 9.504 31.0512 10.182 31.0512 10.914C31.0512 11.286 31.1772 11.598 31.4292 11.85C31.6812 12.102 31.9812 12.228 32.3292 12.228L32.8152 13.614L32.3292 15C31.3452 15 30.4632 14.652 29.6832 13.956C29.3112 14.28 28.8912 14.538 28.4232 14.73C27.9552 14.91 27.4632 15 26.9472 15H14.6172L14.1132 13.614ZM21.9072 0.671999L22.4472 1.626L18.7032 3.786L18.1812 2.832L21.9072 0.671999ZM32.2819 15L31.8319 13.614L32.2999 12.228H32.3359C32.6959 12.228 33.0019 12.102 33.2539 11.85C33.5059 11.598 33.6319 11.286 33.6319 10.914V7.728H36.4219V11.094C36.4219 11.406 36.5299 11.676 36.7459 11.904C36.9619 12.12 37.2259 12.228 37.5379 12.228C37.8619 12.228 38.1319 12.12 38.3479 11.904C38.5759 11.676 38.6899 11.406 38.6899 11.094V7.728H41.4619V11.094C41.4619 11.406 41.5699 11.676 41.7859 11.904C42.0139 12.12 42.2839 12.228 42.5959 12.228C42.9079 12.228 43.1779 12.12 43.4059 11.904C43.6339 11.676 43.7479 11.406 43.7479 11.094V7.656L46.5019 6.99V10.914C46.5019 11.274 46.6279 11.586 46.8799 11.85C47.1439 12.102 47.4499 12.228 47.7979 12.228L48.3019 13.614L47.7979 15C47.3059 15 46.8379 14.91 46.3939 14.73C45.9499 14.55 45.5539 14.304 45.2059 13.992C44.4619 14.664 43.5919 15 42.5959 15C42.1399 15 41.6959 14.916 41.2639 14.748C40.8319 14.568 40.4419 14.334 40.0939 14.046C39.7459 14.346 39.3499 14.58 38.9059 14.748C38.4739 14.916 38.0179 15 37.5379 15C37.0819 15 36.6259 14.904 36.1699 14.712C35.7139 14.52 35.3179 14.28 34.9819 13.992C34.6219 14.304 34.2139 14.55 33.7579 14.73C33.3139 14.91 32.8399 15 32.3359 15H32.2819ZM37.6819 3.642H40.2379V1.878L42.4159 2.58V5.766H37.6819V3.642ZM47.3007 13.614L47.8047 12.228H49.0647C49.4247 12.228 49.7307 12.102 49.9827 11.85C50.2467 11.598 50.3787 11.286 50.3787 10.914V7.638L53.1507 6.954V10.914C53.1507 11.646 52.9647 12.33 52.5927 12.966C52.2327 13.59 51.7347 14.088 51.0987 14.46C50.4747 14.82 49.7967 15 49.0647 15H47.8047L47.3007 13.614ZM47.6607 16.782H52.4127V18.942H47.6607V16.782ZM58.9142 15C58.1702 15 57.4862 14.82 56.8622 14.46C56.2382 14.088 55.7402 13.59 55.3682 12.966C55.0082 12.342 54.8282 11.658 54.8282 10.914V3.102L57.5822 2.418V10.914C57.5822 11.286 57.7082 11.598 57.9602 11.85C58.2242 12.102 58.5422 12.228 58.9142 12.228L59.4002 13.614L58.9142 15ZM58.8781 15L58.4101 13.614L58.8781 12.228H58.9141C59.2741 12.228 59.5801 12.102 59.8321 11.85C60.0961 11.586 60.2281 11.274 60.2281 10.914V6.828H64.3141C65.0461 6.828 65.7241 7.014 66.3481 7.386C66.9841 7.746 67.4821 8.244 67.8421 8.88C68.2141 9.504 68.4001 10.182 68.4001 10.914C68.4001 11.286 68.5261 11.598 68.7781 11.85C69.0301 12.102 69.3421 12.228 69.7141 12.228L70.1461 13.614L69.6421 15C69.1381 15 68.6581 14.91 68.2021 14.73C67.7581 14.55 67.3681 14.298 67.0321 13.974C66.6601 14.298 66.2401 14.55 65.7721 14.73C65.3161 14.91 64.8301 15 64.3141 15C63.7981 15 63.3061 14.904 62.8381 14.712C62.3701 14.508 61.9621 14.238 61.6141 13.902C61.2541 14.25 60.8401 14.52 60.3721 14.712C59.9161 14.904 59.4301 15 58.9141 15H58.8781ZM63.0001 10.914C63.0001 11.274 63.1261 11.586 63.3781 11.85C63.6301 12.102 63.9421 12.228 64.3141 12.228C64.6741 12.228 64.9801 12.102 65.2321 11.85C65.4841 11.586 65.6101 11.274 65.6101 10.914C65.6101 10.542 65.4841 10.23 65.2321 9.978C64.9801 9.726 64.6741 9.6 64.3141 9.6H63.0001V10.914ZM69.5827 15L69.1327 13.614L69.6007 12.228H69.6367C69.9967 12.228 70.3027 12.102 70.5547 11.85C70.8067 11.598 70.9327 11.286 70.9327 10.914V7.638L73.7227 6.954V10.914C73.7227 11.646 73.5367 12.33 73.1647 12.966C72.8047 13.59 72.3067 14.088 71.6707 14.46C71.0467 14.82 70.3687 15 69.6367 15H69.5827ZM71.4367 2.976H73.6867V5.136H71.4367V2.976ZM4.756 44.022C4.012 44.022 3.328 43.836 2.704 43.464C2.08 43.104 1.582 42.612 1.21 41.988C0.85 41.364 0.67 40.68 0.67 39.936V35.238L3.442 34.536V39.936C3.442 40.296 3.568 40.608 3.82 40.872C4.084 41.136 4.396 41.268 4.756 41.268H6.556C6.916 41.268 7.222 41.136 7.474 40.872C7.726 40.608 7.852 40.296 7.852 39.936V31.638L10.642 30.936V39.936C10.642 40.68 10.456 41.364 10.084 41.988C9.724 42.612 9.232 43.104 8.608 43.464C7.984 43.836 7.3 44.022 6.556 44.022H4.756ZM3.514 30.414H5.764V32.574H3.514V30.414ZM12.3419 27.102L15.1139 26.418V39H12.3419V27.102ZM15.5927 41.286L17.3027 40.134V31.656L20.0927 30.954V41.61L17.1227 43.59L15.5927 41.286ZM17.7167 26.994H19.9667V29.136H17.7167V26.994ZM26.0958 39C25.3518 39 24.6678 38.82 24.0438 38.46C23.4198 38.088 22.9218 37.59 22.5498 36.966C22.1898 36.342 22.0098 35.658 22.0098 34.914V27.102L24.7638 26.418V34.914C24.7638 35.286 24.8898 35.598 25.1418 35.85C25.4058 36.102 25.7238 36.228 26.0958 36.228L26.5818 37.614L26.0958 39ZM25.5917 37.614L26.0957 36.228H29.4797L29.9837 37.65L29.4797 39H26.0957L25.5917 37.614ZM28.9843 37.614L29.4883 36.228H32.8723L33.3763 37.65L32.8723 39H29.4883L28.9843 37.614ZM32.3769 37.614L32.8809 36.228H36.2649L36.7689 37.65L36.2649 39H32.8809L32.3769 37.614ZM35.7694 37.614L36.2734 36.228H39.6574L40.1614 37.65L39.6574 39H36.2734L35.7694 37.614ZM39.162 37.614L39.666 36.228H43.05L43.554 37.65L43.05 39H39.666L39.162 37.614ZM42.5546 37.614L43.0586 36.228H46.4426L46.9466 37.65L46.4426 39H43.0586L42.5546 37.614ZM45.9472 37.614L46.4512 36.228H49.8352L50.3392 37.65L49.8352 39H46.4512L45.9472 37.614ZM49.3397 37.614L49.8438 36.228H53.2278L53.7318 37.65L53.2278 39H49.8438L49.3397 37.614ZM52.7323 37.614L53.2363 36.228H56.6203L57.1243 37.65L56.6203 39H53.2363L52.7323 37.614ZM56.1249 37.614L56.6289 36.228H60.0129L60.5169 37.65L60.0129 39H56.6289L56.1249 37.614ZM59.9675 39L59.5175 37.614L59.9855 36.228H60.0215C60.3815 36.228 60.6875 36.102 60.9395 35.85C61.1915 35.598 61.3175 35.286 61.3175 34.914V31.728H64.1075V35.094C64.1075 35.406 64.2155 35.676 64.4315 35.904C64.6475 36.12 64.9115 36.228 65.2235 36.228C65.5475 36.228 65.8175 36.12 66.0335 35.904C66.2615 35.676 66.3755 35.406 66.3755 35.094V31.728H69.1475V35.094C69.1475 35.406 69.2555 35.676 69.4715 35.904C69.6995 36.12 69.9695 36.228 70.2815 36.228C70.5935 36.228 70.8635 36.12 71.0915 35.904C71.3195 35.676 71.4335 35.406 71.4335 35.094V31.656L74.1875 30.99V35.076C74.1875 35.784 74.0135 36.438 73.6655 37.038C73.3175 37.638 72.8435 38.118 72.2435 38.478C71.6435 38.826 70.9895 39 70.2815 39C69.8255 39 69.3815 38.916 68.9495 38.748C68.5175 38.568 68.1275 38.334 67.7795 38.046C67.4315 38.346 67.0355 38.58 66.5915 38.748C66.1595 38.916 65.7035 39 65.2235 39C64.7675 39 64.3115 38.904 63.8555 38.712C63.3995 38.52 63.0035 38.28 62.6675 37.992C62.3075 38.304 61.8995 38.55 61.4435 38.73C60.9995 38.91 60.5255 39 60.0215 39H59.9675Z" fill="url(#paint0_linear_1591_12383)"/>
<defs>
<linearGradient id="paint0_linear_1591_12383" x1="81.5" y1="1.5" x2="-16.5" y2="41" gradientUnits="userSpaceOnUse">
<stop offset="0.196439" stop-color="#fff"/>
<stop offset="1" stop-color="#fff"/>
</linearGradient>
</defs>
</svg>
